P2
22 22
255
0 0 0 0 0 0 0 0 0 0 0 0 0 0 0 0 0 0 0 0 0 0
0 255 255 255 255 255 255 255 255 255 255 255 255 255 255 255 255 255 255 255 255 0
0 255 255 255 255 255 255 255 255 255 255 255 255 255 255 255 255 255 255 255 255 0
0 255 255 255 255 255 255 255 255 255 255 255 255 255 255 255 255 255 255 255 255 0
0 255 255 255 255 255 255 255 255 255 255 255 255 255 255 255 255 255 255 255 255 0
0 255 255 255 255 255 255 255 255 255 255 255 255 255 255 255 255 255 255 255 255 0
0 255 255 255 255 255 255 255 255 255 255 255 255 255 255 255 255 255 255 255 255 0
0 255 255 255 255 255 255 255 255 255 255 255 255 255 255 255 255 255 255 255 255 0
0 255 255 255 255 255 255 255 255 255 255 255 255 255 255 255 255 255 255 255 255 0
0 255 255 255 255 255 255 255 255 255 255 255 255 255 255 255 255 255 255 255 255 0
0 255 255 255 255 255 255 255 255 255 255 255 255 255 255 255 255 255 255 255 255 0
0 255 255 255 255 255 255 255 255 255 255 255 255 255 255 255 255 255 255 255 255 0
0 255 255 255 255 255 255 255 255 255 255 255 255 255 255 255 255 255 255 255 255 0
0 255 255 255 255 255 255 255 255 255 255 255 255 255 255 255 255 255 255 255 255 0
0 255 255 255 255 255 255 255 255 255 255 255 255 255 255 255 255 255 255 255 255 0
0 255 255 255 255 255 255 255 255 255 255 255 255 255 255 255 255 255 255 255 255 0
0 255 255 255 255 255 255 255 255 255 255 255 255 255 255 255 255 255 255 255 255 0
0 255 255 255 255 255 255 255 255 255 255 255 255 255 255 255 255 255 255 255 255 0
0 255 255 255 255 255 255 255 255 255 255 255 255 255 255 255 255 255 255 255 255 0
0 255 255 255 255 255 255 255 255 255 255 255 255 255 255 255 255 255 255 255 255 0
0 255 255 255 255 255 255 255 255 255 255 255 255 255 255 255 255 255 255 255 255 0
0 0 0 0 0 0 0 0 0 0 0 0 0 0 0 0 0 0 0 0 0 0
